<svg width="80" height="80" viewBox="0 0 80 80" fill="none" xmlns="http://www.w3.org/2000/svg">
<path d="M65 57.5C65 56.1193 63.8807 55 62.5 55C61.1193 55 60 56.1193 60 57.5H65ZM62.5 77.5V80C63.8807 80 65 78.8807 65 77.5H62.5ZM2.5 77.5H0C0 78.8807 1.11929 80 2.5 80L2.5 77.5ZM2.5 2.5V0C1.11929 0 0 1.11929 0 2.5L2.5 2.5ZM62.5 2.5H65C65 1.11929 63.8807 0 62.5 0V2.5ZM60 20.255C60 21.6357 61.1193 22.755 62.5 22.755C63.8807 22.755 65 21.6357 65 20.255H60ZM7.67881 69.0715C7.16602 70.3535 7.78956 71.8084 9.07152 72.3212C10.3535 72.834 11.8084 72.2104 12.3212 70.9285L7.67881 69.0715ZM22.5 38.75L24.62 37.425L22.0087 33.2469L20.1788 37.8215L22.5 38.75ZM35 58.75L32.88 60.075L35.1609 63.7244L37.2012 59.9352L35 58.75ZM54.7012 27.4352C55.3558 26.2196 54.9009 24.7034 53.6852 24.0488C52.4696 23.3942 50.9534 23.8491 50.2988 25.0648L54.7012 27.4352ZM65.3503 41.8148C64.374 40.8384 62.7911 40.8384 61.8148 41.8148C60.8384 42.7911 60.8384 44.374 61.8148 45.3503L65.3503 41.8148ZM75.7322 59.2678C76.7086 60.2441 78.2915 60.2441 79.2678 59.2678C80.2441 58.2915 80.2441 56.7086 79.2678 55.7323L75.7322 59.2678ZM60 57.5V77.5H65V57.5H60ZM62.5 75H2.5V80H62.5V75ZM5 77.5V2.5H0V77.5H5ZM2.5 5H62.5V0H2.5V5ZM60 2.5V20.255H65V2.5H60ZM12.3212 70.9285L24.8212 39.6785L20.1788 37.8215L7.67881 69.0715L12.3212 70.9285ZM20.38 40.075L32.88 60.075L37.12 57.425L24.62 37.425L20.38 40.075ZM37.2012 59.9352L54.7012 27.4352L50.2988 25.0648L32.7988 57.5648L37.2012 59.9352ZM61.8148 45.3503L75.7322 59.2678L79.2678 55.7323L65.3503 41.8148L61.8148 45.3503ZM65 32.5C65 40.7843 58.2843 47.5 50 47.5V52.5C61.0457 52.5 70 43.5457 70 32.5H65ZM50 47.5C41.7157 47.5 35 40.7843 35 32.5H30C30 43.5457 38.9543 52.5 50 52.5V47.5ZM35 32.5C35 24.2157 41.7157 17.5 50 17.5V12.5C38.9543 12.5 30 21.4543 30 32.5H35ZM50 17.5C58.2843 17.5 65 24.2157 65 32.5H70C70 21.4543 61.0457 12.5 50 12.5V17.5Z" fill="#F2F2F2"/>
</svg>
