<svg width="20" height="20" viewBox="0 0 20 20" fill="none" xmlns="http://www.w3.org/2000/svg">
<path d="M18.7082 0H1.29178C0.578072 0 0 0.578072 0 1.29178V18.7082C0 19.4219 0.578072 20 1.29178 20H6.68012C7.08057 19.9903 7.23397 19.698 7.23397 19.4445C7.23397 19.191 7.22428 18.2997 7.21944 17.3664C4.11432 18.0413 3.45874 16.0504 3.45874 16.0504C2.95172 14.7602 2.22025 14.4179 2.22025 14.4179C1.20782 13.7252 2.29614 13.7397 2.29614 13.7397C3.41676 13.8188 4.00614 14.8894 4.00614 14.8894C5.00081 16.5962 6.61715 16.1021 7.25335 15.8162C7.35346 15.0945 7.6425 14.602 7.96222 14.3242C5.48361 14.0417 2.87744 13.0857 2.87744 8.80833C2.87744 7.58921 3.31342 6.59454 4.02713 5.81301C3.91087 5.53205 3.52979 4.3969 4.13531 2.85968C4.13531 2.85968 5.07185 2.55934 7.20491 4.00452C8.09462 3.75747 9.05054 3.63313 9.99838 3.62829C10.9462 3.63313 11.9021 3.75585 12.7935 4.00452C14.9233 2.56096 15.8598 2.85968 15.8598 2.85968C16.467 4.3969 16.0859 5.53205 15.9696 5.81301C16.685 6.59454 17.1177 7.59083 17.1177 8.80833C17.1177 13.0954 14.5067 14.0384 12.0216 14.3145C12.4221 14.6601 12.7789 15.3399 12.7789 16.3814C12.7789 17.875 12.766 19.0764 12.766 19.4445C12.766 19.7045 12.921 20.0032 13.3393 20H18.7066C19.4203 20 19.9984 19.4219 19.9984 18.7082V1.29178C19.9984 0.578072 19.4203 0 18.7066 0H18.7082Z" fill="#171122"/>
</svg>
