<svg width="84" height="85" viewBox="0 0 84 85" fill="none" xmlns="http://www.w3.org/2000/svg">
<path d="M50.0262 52.9945C46.1993 56.3545 43.3061 60.6483 41.7194 65.408H21.7458C20.0661 60.6481 17.1722 56.2614 13.1589 52.8075C6.53182 46.9279 3.17176 38.4342 3.82544 29.5671C4.85216 15.8468 16.0522 4.83332 29.7726 3.80664C36.119 3.33983 42.1861 5.02019 47.4129 8.47338C48.2527 9.03329 49.4662 8.84644 50.0262 8.00658C50.5862 7.16671 50.3993 5.95321 49.5594 5.3932C43.6792 1.38013 36.7727 -0.393402 29.5858 0.0727728C13.9058 1.19259 1.30526 13.793 0.0919096 29.2866C-0.654853 39.3668 3.17196 48.887 10.7321 55.6071C16.3325 60.5538 19.5987 67.5539 19.5987 74.7407C19.5987 75.7674 20.4386 76.6073 21.4653 76.6073H26.132V82.2077C26.132 83.2344 26.9719 84.0742 27.9986 84.0742H35.4655C36.4922 84.0742 37.3321 83.2344 37.3321 82.2077V76.6073H41.9988C43.0255 76.6073 43.8653 75.7674 43.8653 74.7407C43.8653 67.4606 47.0386 60.5537 52.4521 55.8871C53.1989 55.2334 53.292 54.0205 52.639 53.2737C51.9866 52.4332 50.7731 52.3401 50.0263 52.9931L50.0262 52.9945ZM33.5995 80.3416H29.8664V76.6086H33.5995V80.3416ZM35.466 72.8747H23.2393C23.1462 71.6611 22.9593 70.3545 22.7725 69.1416H40.6928C40.4128 70.3552 40.3197 71.5681 40.226 72.8747H35.466ZM82.1335 36.474H29.0259C28.6528 36.474 28.2791 36.5671 27.9992 36.8471L21.372 41.5138C20.9052 41.8869 20.5322 42.4475 20.5322 43.0074C20.5322 43.661 20.8121 44.2209 21.372 44.5009L27.9992 49.1676C28.2791 49.3545 28.6528 49.5407 29.0259 49.5407L82.1335 49.5413C83.1602 49.5413 84 48.7014 84 47.6748V38.3413C84 37.3146 83.1601 36.4741 82.1335 36.4741V36.474ZM25.6658 43.008L29.6789 40.2078H70.9329V45.8082L29.6789 45.8075L25.6658 43.008ZM80.2668 45.8075H74.6663V40.2071H80.2668V45.8075ZM31.7326 13.1403C21.4654 13.1403 13.0656 21.5401 13.0656 31.8073C13.0656 32.834 12.2257 33.6738 11.1991 33.6738C10.1724 33.6738 9.33254 32.834 9.33254 31.8073C9.33254 19.4867 19.4127 9.4069 31.7329 9.4069C32.7596 9.4069 33.5995 10.2468 33.5995 11.2734C33.6001 12.3002 32.7596 13.14 31.7329 13.14L31.7326 13.1403ZM55.0663 16.3142C54.3196 15.6605 54.2265 14.4477 54.9732 13.7008C56.9336 11.5543 59.64 10.4338 62.5332 10.4338C68.2266 10.4338 72.8004 15.0073 72.8004 20.7009C72.8004 26.3944 68.2268 30.9681 62.5332 30.9681L29.866 30.9675C28.8392 30.9675 27.9994 30.1276 27.9994 29.1009C27.9994 28.0743 28.8393 27.2344 29.866 27.2344H62.5332C66.1733 27.2344 69.0665 24.3412 69.0665 20.7011C69.0665 17.061 66.1733 14.1678 62.5332 14.1678C60.7597 14.1678 58.9863 14.9146 57.7733 16.3144C57.0265 16.9674 55.8129 16.9674 55.0662 16.3144L55.0663 16.3142ZM35.466 18.7407H50.3999C51.4266 18.7407 52.2664 19.5806 52.2664 20.6073C52.2664 21.634 51.4266 22.4738 50.3999 22.4738H35.466C34.4393 22.4738 33.5995 21.6339 33.5995 20.6073C33.5995 19.5805 34.4393 18.7407 35.466 18.7407Z" fill="#F2F2F2"/>
</svg>
