<svg width="97" height="40" viewBox="0 0 97 40" fill="none" xmlns="http://www.w3.org/2000/svg">
<g clip-path="url(#clip0_980_6928)">
<path d="M31.1831 16.5557H33.9135V30.8777H36.8339V16.5557H39.5671V13.7637H31.1831V16.5557Z" fill="#221A32"/>
<path d="M48.3005 21.5026C48.6163 20.787 48.7756 19.9116 48.7756 18.9014C48.7756 15.4921 47.2804 13.7607 44.3292 13.7607H40.2518V30.8747H43.1722V23.8063H44.1001L46.2995 30.8747H49.396L46.7969 23.1666C47.4984 22.7344 48.0042 22.176 48.3005 21.5026ZM43.1722 16.5556H44.1196C44.8351 16.5556 45.3186 16.7323 45.5477 17.0691C45.6679 17.2683 45.7489 17.5096 45.7881 17.7902C45.8328 18.0933 45.8551 18.4524 45.8551 18.8537C45.8551 19.255 45.8328 19.6141 45.7881 19.9172C45.7461 20.1978 45.6735 20.4363 45.5757 20.6075C45.4639 20.7814 45.313 20.9105 45.1145 21.0059C44.9049 21.1041 44.6115 21.1546 44.237 21.1546H43.175V16.5556H43.1722Z" fill="#221A32"/>
<path d="M55.7874 13.7637H53.37L49.5637 30.8777H52.5037L53.1996 27.3196H55.9579L56.6538 30.8777H59.5938L55.8349 13.9825L55.7874 13.7637ZM55.4101 24.5276H53.725L54.5662 20.1642L55.4074 24.5276H55.4101Z" fill="#221A32"/>
<path d="M63.6517 13.7637H59.8761V30.8777H63.4421C64.9149 30.8777 66.0691 30.4792 66.8683 29.6935C67.6704 28.905 68.0756 27.6844 68.0756 26.0653V18.3235C68.0756 16.8924 67.6956 15.7644 66.9466 14.9675C66.192 14.1677 65.0853 13.7637 63.6517 13.7637ZM62.7965 16.5557H63.6042C64.2022 16.5557 64.6102 16.696 64.8143 16.9766C65.0378 17.2824 65.1524 17.7342 65.1524 18.3207V26.2954C65.1524 26.938 65.035 27.4038 64.8003 27.6844C64.5795 27.9482 64.1771 28.0829 63.6014 28.0829H62.7937V16.5557H62.7965Z" fill="#221A32"/>
<path d="M69.5708 30.8777H77.1695V27.9454H72.4912V23.6465H76.5659V20.8545H72.4912V16.5557H77.1695V13.7637H69.5708V30.8777Z" fill="#221A32"/>
<path d="M96.028 16.6567C95.8632 16.0338 95.5613 15.481 95.1282 15.0152C94.6978 14.5494 94.2059 14.2211 93.6721 14.0331C93.1495 13.8535 92.5431 13.7637 91.8668 13.7637H88.0436V30.8777H90.9641V24.4154H91.8891C92.8142 24.4154 93.5743 24.2498 94.1556 23.9271C94.7369 23.6016 95.2092 23.1414 95.553 22.5634C95.8492 22.0864 96.0448 21.5673 96.1342 21.0201C96.2209 20.4953 96.2656 19.8472 96.2656 19.0895C96.2656 18.0794 96.1846 17.26 96.0253 16.6567H96.028ZM93.4541 20.2316C93.4346 20.5318 93.3703 20.7816 93.2641 20.9864C93.1663 21.1828 93.0154 21.3343 92.803 21.4466C92.5822 21.5644 92.2524 21.6234 91.8221 21.6234H90.9669V16.5585H91.9143C92.3279 16.5585 92.6381 16.6174 92.8421 16.7325C93.0377 16.8447 93.1831 17.0018 93.2809 17.2123C93.3871 17.4424 93.4486 17.7146 93.4625 18.0232C93.4765 18.3712 93.4849 18.7388 93.4849 19.1148C93.4849 19.5217 93.4737 19.9005 93.4514 20.2344L93.4541 20.2316Z" fill="#221A32"/>
<path d="M83.9438 26.6433C83.9438 27.1512 83.8321 27.5244 83.6085 27.746C83.3849 27.9677 83.1082 28.0828 82.7645 28.0828C82.4207 28.0828 82.1469 27.9733 81.9205 27.746C81.6941 27.5187 81.5851 27.1512 81.5851 26.6433V13.7636H78.6647V26.8762C78.6647 27.457 78.7737 27.9986 78.9889 28.4896C79.2013 28.9779 79.5031 29.4156 79.8804 29.7944C80.2577 30.1733 80.6964 30.4763 81.1799 30.6896C81.669 30.9056 82.2028 31.0151 82.7617 31.0151C83.3206 31.0151 83.8572 30.9056 84.3547 30.6896C84.8465 30.4763 85.2881 30.1733 85.6682 29.7944C86.0482 29.4156 86.3445 28.9751 86.5513 28.484C86.7581 27.993 86.8615 27.4542 86.8615 26.8762V11.4346H83.941V26.6433H83.9438Z" fill="#221A32"/>
<path d="M85.3775 8.98486L82.4711 11.4345H88.2812L85.3775 8.98486Z" fill="#221A32"/>
<path d="M13.8001 32L6.86094 27.9986V13.7215L0.796484 15.537L6.86094 12.0239L13.8001 8V0L0 8V32L13.8029 40L13.8001 32Z" fill="#221A32"/>
<path d="M13.8001 32L20.7421 27.9986V13.7215L26.8038 15.537L20.7421 12.0239L13.8001 8V0L27.6003 8V32L13.7973 40L13.8001 32Z" fill="#3C334F"/>
</g>
<defs>
<clipPath id="clip0_980_6928">
<rect width="96.2712" height="40" fill="white"/>
</clipPath>
</defs>
</svg>
