<svg width="78" height="94" viewBox="0 0 78 94" fill="none" xmlns="http://www.w3.org/2000/svg">
<path d="M67.8476 45.1882V17.0071C67.8476 16.8493 67.8303 16.6915 67.7998 16.5365C67.7851 16.4633 67.7586 16.3962 67.7386 16.3257C67.716 16.2458 67.6974 16.1652 67.6662 16.088C67.631 16.0041 67.5845 15.9276 67.5406 15.8484C67.5094 15.7906 67.4835 15.7302 67.4463 15.6745C67.3586 15.5416 67.259 15.4167 67.1474 15.3046L52.7032 0.706893C52.5916 0.594112 52.468 0.493412 52.3365 0.404803C52.282 0.368551 52.2242 0.344385 52.1671 0.312161C52.088 0.267855 52.0109 0.218848 51.9259 0.18394C51.8508 0.152389 51.7717 0.134934 51.6933 0.110767C51.6229 0.089285 51.5552 0.0617604 51.4821 0.0469927C51.3286 0.0161117 51.1725 0 51.0163 0L2.76825 0.000671481C1.45279 0.000671481 0.387146 1.07746 0.387146 2.40667V77.0305C0.387146 78.3597 1.45279 79.4365 2.76825 79.4365H39.0972V84.7862C39.0972 90.8347 48.7293 94 58.2447 94C67.7566 94 77.3871 90.8347 77.3871 84.7862V53.2522C77.3865 49.3175 73.3126 46.6054 67.8474 45.1883L67.8476 45.1882ZM72.6245 74.6445C72.6245 75.9213 67.5852 79.0444 58.2447 79.0444C48.9004 79.0444 43.8591 75.9214 43.8591 74.6445V69.5713C47.549 71.5086 52.9151 72.5016 58.2447 72.5016C63.573 72.5016 68.9358 71.5088 72.6245 69.572V74.6445ZM72.6245 63.2878C72.6245 64.5647 67.5852 67.6896 58.2447 67.6896C48.9004 67.6896 43.8591 64.5646 43.8591 63.2878V59.5365C47.549 61.4739 52.9151 62.4669 58.2447 62.4669C63.573 62.4669 68.9358 61.474 72.6245 59.5372V63.2878ZM72.6245 53.2522C72.6245 54.5291 67.5852 57.654 58.2447 57.654C48.9004 57.654 43.8591 54.529 43.8591 53.2522C43.8591 51.9754 48.9004 48.8505 58.2447 48.8505C60.8172 48.8505 63.0508 49.0921 64.9549 49.4627C64.9788 49.4688 65.0027 49.4721 65.0253 49.4775C69.9901 50.4542 72.6245 52.3312 72.6245 53.2523L72.6245 53.2522ZM53.397 8.21365L59.7185 14.6012H53.397V8.21365ZM5.14888 4.81208H48.6348V17.0072C48.6348 18.3364 49.7004 19.4132 51.0159 19.4132H63.0855V44.3153C61.5004 44.1314 59.8714 44.0361 58.2442 44.0361C48.7292 44.0361 39.0967 47.2013 39.0967 53.2498V74.622L5.14888 74.6227V4.81208ZM58.2442 89.1871C48.8999 89.1871 43.8586 86.062 43.8586 84.7853V80.9259C47.5485 82.862 52.9146 83.8555 58.2442 83.8555C63.5725 83.8555 68.9352 82.8627 72.6239 80.9259V84.7853C72.6246 86.0621 67.5853 89.1871 58.2442 89.1871Z" fill="#F2F2F2"/>
</svg>
